<svg width="18" height="18" viewBox="0 0 18 18" fill="none" xmlns="http://www.w3.org/2000/svg">
<mask id="path-1-inside-1_3655_94832" fill="white">
<path fill-rule="evenodd" clip-rule="evenodd" d="M12.7878 9.91945C12.6538 9.85355 12.6297 9.66901 12.7401 9.56852C13.8453 8.56252 14.5391 7.11228 14.5391 5.5C14.5391 2.46243 12.0766 0 9.03905 0C6.00148 0 3.53905 2.46243 3.53905 5.5C3.53905 7.04296 4.17442 8.43752 5.19779 9.43633C5.30464 9.54063 5.27401 9.72427 5.13779 9.78543C2.58746 10.9305 0.667022 13.2283 0.0397913 16.0156C-0.202708 17.0932 0.715732 18 1.8203 18H15.8203C16.9249 18 17.8433 17.0932 17.6008 16.0156C16.9972 13.3331 15.1957 11.104 12.7878 9.91945Z"/>
</mask>
<path d="M0.0397913 16.0156L-1.42361 15.6863L0.0397913 16.0156ZM17.6008 16.0156L19.0642 15.6863V15.6863L17.6008 16.0156ZM5.19779 9.43633L4.15009 10.5098L5.19779 9.43633ZM5.13779 9.78543L4.5234 8.41702L5.13779 9.78543ZM12.7401 9.56852L11.7304 8.45923L12.7401 9.56852ZM12.7878 9.91945L13.4499 8.57349L12.7878 9.91945ZM13.0391 5.5C13.0391 6.67251 12.5365 7.72551 11.7304 8.45923L13.7498 10.6778C15.1541 9.39954 16.0391 7.55205 16.0391 5.5H13.0391ZM9.03905 1.5C11.2482 1.5 13.0391 3.29086 13.0391 5.5H16.0391C16.0391 1.63401 12.905 -1.5 9.03905 -1.5V1.5ZM5.03905 5.5C5.03905 3.29086 6.82991 1.5 9.03905 1.5V-1.5C5.17306 -1.5 2.03905 1.63401 2.03905 5.5H5.03905ZM6.24548 8.36287C5.49941 7.6347 5.03905 6.62245 5.03905 5.5H2.03905C2.03905 7.46348 2.84943 9.24035 4.15009 10.5098L6.24548 8.36287ZM4.5234 8.41702C1.54952 9.75224 -0.690983 12.4306 -1.42361 15.6863L1.5032 16.3449C2.02503 14.026 3.6254 12.1087 5.75218 11.1538L4.5234 8.41702ZM-1.42361 15.6863C-1.92909 17.9326 0.00596159 19.5 1.8203 19.5V16.5C1.67279 16.5 1.56768 16.4379 1.52138 16.3883C1.501 16.3665 1.49882 16.355 1.49992 16.3588C1.50216 16.3664 1.49844 16.3661 1.5032 16.3449L-1.42361 15.6863ZM1.8203 19.5H15.8203V16.5H1.8203V19.5ZM15.8203 19.5C17.6346 19.5 19.5697 17.9326 19.0642 15.6863L16.1374 16.3449C16.1422 16.3661 16.1384 16.3664 16.1407 16.3588C16.1418 16.355 16.1396 16.3665 16.1192 16.3883C16.0729 16.4379 15.9678 16.5 15.8203 16.5V19.5ZM19.0642 15.6863C18.3591 12.5528 16.2572 9.95445 13.4499 8.57349L12.1257 11.2654C14.1343 12.2535 15.6353 14.1134 16.1374 16.3449L19.0642 15.6863ZM4.15009 10.5098C3.51793 9.89281 3.67141 8.79955 4.5234 8.41702L5.75218 11.1538C6.87661 10.649 7.09136 9.18844 6.24548 8.36287L4.15009 10.5098ZM11.7304 8.45923C10.8566 9.25459 11.0198 10.7214 12.1257 11.2654L13.4499 8.57349C14.2879 8.98571 14.4028 10.0834 13.7498 10.6778L11.7304 8.45923Z" fill="#606060" mask="url(#path-1-inside-1_3655_94832)"/>
</svg>
