<svg width="40" height="42" viewBox="0 0 40 42" fill="none" xmlns="http://www.w3.org/2000/svg">
<path d="M3.76901 30.785C2.05733 23.921 1.20149 20.491 2.99895 18.183C4.79442 15.875 8.3255 15.875 15.3817 15.875H24.6183C31.6765 15.875 35.2036 15.875 37.001 18.183C38.7985 20.489 37.9427 23.923 36.231 30.785C35.1417 35.151 34.5991 37.333 32.9752 38.605C31.3513 39.875 29.107 39.875 24.6183 39.875H15.3817C10.893 39.875 8.64868 39.875 7.02478 38.605C5.40088 37.333 4.85626 35.151 3.76901 30.785Z" stroke="white" stroke-width="3"/>
<path d="M35 16.125L33.58 10.915C33.032 8.905 32.758 7.901 32.196 7.143C31.6356 6.38993 30.8746 5.8098 30 5.469C29.12 5.125 28.08 5.125 26 5.125M5 16.125L6.42 10.915C6.968 8.905 7.242 7.901 7.804 7.143C8.36435 6.38993 9.12538 5.8098 10 5.469C10.88 5.125 11.92 5.125 14 5.125" stroke="white" stroke-width="3"/>
<path d="M14 4.125C14 3.59457 14.2107 3.08586 14.5858 2.71079C14.9609 2.33571 15.4696 2.125 16 2.125H24C24.5304 2.125 25.0391 2.33571 25.4142 2.71079C25.7893 3.08586 26 3.59457 26 4.125C26 4.65543 25.7893 5.16414 25.4142 5.53921C25.0391 5.91429 24.5304 6.125 24 6.125H16C15.4696 6.125 14.9609 5.91429 14.5858 5.53921C14.2107 5.16414 14 4.65543 14 4.125Z" stroke="white" stroke-width="3"/>
</svg>
