<svg width="41" height="38" viewBox="0 0 41 38" fill="none" xmlns="http://www.w3.org/2000/svg">
<path d="M20.705 32.2016L20.5 32.4087L20.2745 32.2016C10.537 23.2763 4.1 17.3744 4.1 11.3896C4.1 7.24796 7.175 4.14169 11.275 4.14169C14.432 4.14169 17.507 6.21253 18.5935 9.02888H22.4065C23.493 6.21253 26.568 4.14169 29.725 4.14169C33.825 4.14169 36.9 7.24796 36.9 11.3896C36.9 17.3744 30.463 23.2763 20.705 32.2016ZM29.725 0C26.158 0 22.7345 1.67738 20.5 4.30736C18.2655 1.67738 14.842 0 11.275 0C4.961 0 0 4.99074 0 11.3896C0 19.1967 6.97 25.5956 17.5275 35.2665L20.5 38L23.4725 35.2665C34.03 25.5956 41 19.1967 41 11.3896C41 4.99074 36.039 0 29.725 0Z" fill="white"/>
</svg>
