<svg width="112" height="36" viewBox="0 0 112 36" fill="none" xmlns="http://www.w3.org/2000/svg">
<path d="M12.1083 0.615207C11.7051 0.615207 11.4862 0.546083 11.1982 0.511521C8.61751 7.0553 3.23733 18.9101 0 25.9608C0.47235 25.8917 0.910138 25.7419 1.60138 25.7419C2.29263 25.7419 2.66129 25.8802 3.08756 25.9608C4.28571 21.341 5.74885 18.1037 6.47465 16.4332H15.6797C16.5899 18.4378 18.076 21.5945 19.3548 25.9608C20.0461 25.8571 20.7373 25.7419 21.682 25.7419C22.5922 25.7419 23.2028 25.8456 23.8249 25.9608C23.7442 25.8226 15.7143 8.13825 12.9147 0.5C12.6152 0.580645 12.4309 0.615207 12.1083 0.615207ZM7.20046 14.6244L11.0253 5.60369L14.9539 14.6244H7.20046Z" fill="white"/>
<path d="M34.7811 8.10352C28.8133 8.10352 26.0483 12.3201 26.0483 17.3431C26.0483 22.9537 29.4354 26.4445 34.9654 26.4445C37.9147 26.4445 40.1382 25.6035 41.7281 24.0713C41.7626 23.4952 41.7626 22.9077 41.9815 21.8938L41.5437 21.7902C40.9907 22.5505 39.3202 24.7279 35.7603 24.7279C34.7119 24.7279 32.3387 24.6243 30.6682 21.8938C29.6889 20.2233 29.6889 18.1496 29.6889 17.1358H42.7419C42.7765 15.1657 42.8801 8.10352 34.7811 8.10352ZM29.7119 15.6035C30.0345 11.963 31.5668 9.56665 34.735 9.56665C39.1013 9.56665 39.1013 14.4054 39.1013 15.6035H29.7119Z" fill="white"/>
<path d="M52.8573 15.4541C51.59 15.1315 49.4356 14.3597 49.4356 12.2514C49.4356 10.6845 50.5992 9.52095 52.8112 9.52095C53.3987 9.52095 54.4126 9.60159 55.1729 10.1431C56.2328 10.8689 56.4517 11.779 56.59 12.3205H57.0623C57.1775 11.0878 57.431 10.2122 57.7881 9.26749C56.9471 8.84122 55.4955 8.06934 52.984 8.06934C47.9609 8.06934 46.6821 11.4219 46.6821 13.4841C46.6821 16.6868 49.2628 17.8159 50.8296 18.3228C54.643 19.5555 55.8872 19.9587 55.8872 22.0325C55.8872 24.1062 54.1015 25.0163 52.2121 25.0163C51.4172 25.0163 50.4609 24.8666 49.5623 24.3251C48.2144 23.5186 47.8573 22.5394 47.5923 21.9173L47.1545 22.0209C47.0854 22.4933 46.7973 24.0601 46.3135 24.9357C46.7167 25.2237 48.7444 26.4564 51.6937 26.4564C56.7513 26.4564 58.6867 23.3689 58.6867 20.6039C58.7098 16.9864 56.0946 16.2951 52.8573 15.4541Z" fill="white"/>
<path d="M71.6244 8.06934C66.1636 8.06934 62.3733 11.5947 62.3733 17.2629C62.3733 24.7168 67.7535 26.468 71.6244 26.468C77.1429 26.468 81.1521 22.8274 81.1521 17.044C81.1521 12.62 78.5369 8.06934 71.6244 8.06934ZM71.659 25.0163C68.3065 25.0163 66.0945 22.2168 66.0945 17.1592C66.0945 16.0647 66.0945 9.52095 71.8433 9.52095C76.5784 9.52095 77.4424 14.3597 77.4424 17.1938C77.4424 21.9979 75.1498 25.0163 71.659 25.0163Z" fill="white"/>
<path d="M95.2996 8.03467C91.2673 8.03467 89.7005 10.5808 89.1244 11.5255C89.1244 10.7651 89.1244 10.2121 89.2742 8.219C88.7673 8.32269 88.1452 8.43789 87.4885 8.43789C86.7973 8.43789 86.2097 8.33421 85.7028 8.219C85.818 13.4955 85.8871 17.9655 85.8871 21.2835C85.8871 26.0185 85.7834 30.7766 85.4839 35.5001C86.0599 35.3503 86.5323 35.2812 87.4424 35.2812C88.318 35.2812 88.7903 35.3503 89.3318 35.5001C89.1129 32.1591 89.1475 28.8411 89.1475 23.1384C89.735 24.6361 91.659 26.5139 95.0807 26.5139C99.8387 26.5139 103.376 22.9079 103.376 17.1706C103.387 10.6844 98.9401 8.03467 95.2996 8.03467ZM94.4355 24.6591C92.765 24.6591 91.5208 24.0024 90.5876 22.8734C89.8157 21.9748 89.0899 20.7651 89.0899 17.5623C89.0899 13.9563 89.8502 12.6545 90.5876 11.7443C91.4286 10.6844 92.6959 9.85494 94.6659 9.85494C97.0277 9.85494 99.6429 11.848 99.6429 17.3434C99.6314 18.507 99.6314 24.6591 94.4355 24.6591Z" fill="white"/>
<path d="M39.9538 3.56445H29.8962V4.70501H39.9538V3.56445Z" fill="white"/>
<path d="M108.687 21.5713C107.396 21.5713 106.313 22.6082 106.313 23.9561C106.313 25.2925 107.373 26.3409 108.698 26.3409C110.012 26.3409 111.072 25.2925 111.072 23.9561C111.06 22.6312 110.023 21.5713 108.687 21.5713ZM108.687 25.9146C107.581 25.9146 106.763 25.0736 106.763 23.9561C106.763 22.8616 107.592 21.9976 108.687 21.9976C109.827 21.9976 110.622 22.8847 110.622 23.9561C110.622 25.0851 109.793 25.9146 108.687 25.9146Z" fill="white"/>
<path d="M109.712 23.1959C109.712 22.5508 109.032 22.5623 108.364 22.5623C108.053 22.5623 107.915 22.5623 107.707 22.5508C107.719 22.8388 107.742 23.1729 107.742 23.8411C107.742 24.613 107.73 24.9471 107.696 25.2351C107.776 25.2236 107.811 25.2121 107.949 25.2121C108.088 25.2121 108.134 25.2351 108.249 25.2351C108.214 24.6476 108.214 24.3365 108.214 23.9217H108.306C108.56 24.2213 108.917 24.59 109.366 25.2351C109.516 25.2236 109.608 25.2121 109.7 25.2121C109.804 25.2121 109.885 25.2351 109.977 25.2351L110 25.189C109.827 25.0162 109.021 24.1061 108.836 23.8641C109.101 23.8526 109.712 23.7605 109.712 23.1959ZM108.214 23.7489C108.214 23.4379 108.214 23.1153 108.226 22.7582C108.664 22.7582 109.193 22.7582 109.193 23.242C109.193 23.7489 108.502 23.7489 108.214 23.7489Z" fill="white"/>
</svg>
